<?xml version="1.0" standalone="no"?>
<!DOCTYPE svg PUBLIC "-//W3C//DTD SVG 20010904//EN"
 "http://www.w3.org/TR/2001/REC-SVG-20010904/DTD/svg10.dtd">
<svg version="1.0" xmlns="http://www.w3.org/2000/svg"
 width="600.000000pt" height="600.000000pt" viewBox="0 0 600.000000 600.000000"
 preserveAspectRatio="xMidYMid meet">
<metadata>
Created by potrace 1.11, written by Peter Selinger 2001-2013
</metadata>
<g transform="translate(0.000000,600.000000) scale(0.100000,-0.100000)"
fill="#000000" stroke="none">
<path d="M0 3000 l0 -3000 3000 0 3000 0 0 3000 0 3000 -3000 0 -3000 0 0
-3000z m1855 1610 c410 -47 747 -225 920 -485 152 -228 225 -551 225 -995 0
-545 -115 -928 -345 -1155 -121 -119 -326 -240 -506 -298 -188 -62 -346 -77
-806 -77 l-333 0 0 1510 0 1510 378 0 c207 0 417 -5 467 -10z m3515 8 c0 -2
-7 -57 -15 -123 -8 -65 -15 -123 -15 -127 0 -4 -214 -8 -475 -8 l-475 0 0
-1380 0 -1380 -140 0 -140 0 0 1380 0 1380 -485 0 -485 0 0 130 0 130 1115 0
c613 0 1115 -1 1115 -2z"/>
<path d="M1290 3493 c0 -489 -3 -1061 -7 -1271 l-6 -384 299 5 c338 5 394 13
550 86 311 146 473 374 538 759 55 320 43 735 -30 1011 -68 259 -230 480 -420
572 -165 80 -361 109 -736 109 l-188 0 0 -887z"/>
</g>
</svg>
